# xmcd
#
# Track frame offsets: 
#        150
#        16738
#        31781
#        48154
#        65212
#        84201
#        101066
#        120240
#        139172
#        154981
#        171661
#        187422
#        202474
#        216548
#        229670
#        246392
#        264408
#        281632
#        298166
#        316242
#
# Disc length: 4445 seconds
#
# Revision: 0
# Processed by: cddbd v1.5.2PL0 Copyright (c) Steve Scherf et al.
# Submitted via: ExactAudioCopy v0.99pb4
#
DISCID=39115b14
DTITLE=Girlicious - Girlicious (Canadian Deluxe Edition)
DYEAR=2008
DGENRE=Pop
TTITLE0=Do About It
TTITLE1=Baby Doll
TTITLE2=Liar Liar (Feat. Flo-Rida)
TTITLE3=Save The World
TTITLE4=Here I Am
TTITLE5=Already Gone
TTITLE6=I.O.U.1. (Feat. Kardinal Offishall)
TTITLE7=My Boo
TTITLE8=Radio
TTITLE9=Still In Love (Feat. Sean Kingston)
TTITLE10=It's Mine
TTITLE11=The Way We Were
TTITLE12=Stupid Sh**
TTITLE13=Like Me
TTITLE14=Caught
TTITLE15=Don't Turn Back (Feat. Colby O'Donis)
TTITLE16=Mirror
TTITLE17=Baby Doll (Dave Audé Club Edit)
TTITLE18=Like Me (Dave Audé Club Edit)
TTITLE19=Stupid Sh** (Dave Audé Club Edit)
EXTD=
EXTT0=
EXTT1=
EXTT2=
EXTT3=
EXTT4=
EXTT5=
EXTT6=
EXTT7=
EXTT8=
EXTT9=
EXTT10=
EXTT11=
EXTT12=
EXTT13=
EXTT14=
EXTT15=
EXTT16=
EXTT17=
EXTT18=
EXTT19=
PLAYORDER=
